<svg xmlns="http://www.w3.org/2000/svg" width="110.964" height="111.113" viewBox="0 0 110.964 111.113">
    <defs>
        <style>
            .cls-1{fill:#dc0016}
        </style>
    </defs>
    <g id="success_1_" transform="translate(-103 -101.799)">
        <path id="Path_260" d="M373.474 238.531a3.336 3.336 0 0 0-2.4-1.031 3.283 3.283 0 0 0-2.4 1.031l-51.161 51.147-19.577-19.563a3.336 3.336 0 0 0-2.4-1.031 3.4 3.4 0 0 0-2.4 5.834l21.973 21.982a3.312 3.312 0 0 0 4.8 0l53.562-53.562a3.336 3.336 0 0 0 1.031-2.4 3.283 3.283 0 0 0-1.028-2.407zm0 0" class="cls-1" transform="translate(-163.445 -117.29)"/>
        <path id="Path_261" d="M213.964 161.358a3.487 3.487 0 0 0-6.973 0v.027a48.579 48.579 0 1 1-27.405-47.864 3.424 3.424 0 0 0 3.785-.76 3.445 3.445 0 0 0 .99-2.456 3.487 3.487 0 0 0-1.967-3.148 55.566 55.566 0 1 0 31.57 54.254v-.054zm0 0" class="cls-1"/>
    </g>
</svg>
