<svg xmlns="http://www.w3.org/2000/svg" width="24.755" height="19.469" viewBox="0 0 24.755 19.469">
    <path fill="#31383e" d="M45.817 7.314H22.8a.917.917 0 0 0-.853.853v17.764a.917.917 0 0 0 .853.853h23.017a.917.917 0 0 0 .853-.853V8.309a.8.8 0 0 0-.853-.995zM23.932 9.3h20.89v3.269h-20.89zm20.749 15.636H23.932V15.13h20.89v9.806h-.142zm-6.537-1.847h4.548a.306.306 0 0 0 .284-.284v-1.99a.306.306 0 0 0-.284-.284h-4.549a.306.306 0 0 0-.284.284V22.8c.142.142.142.284.284.284z" transform="translate(-21.943 -7.314)"/>
</svg>
