<svg xmlns="http://www.w3.org/2000/svg" width="175.748" height="56.119" viewBox="0 0 175.748 56.119">
    <defs>
        <style>
            .cls-1{fill:#dc0016}
        </style>
    </defs>
    <g id="Group_766" transform="translate(-871.504 -512.318)">
        <path id="Path_246" d="M894.6 542.031c12.554 0 22.879-6.574 22.879-14.857 0-8.43-10.1-14.856-23.1-14.856-12.776 0-22.878 6.426-22.878 14.671-.001 8.468 10.105 15.042 23.099 15.042zm0-6.389c-2.08 0-3.528-3.491-3.714-8.468h.186c1.04 0 2.265.223 3.714.223a14.4 14.4 0 0 0 3.3-.223c-.175 4.977-1.624 8.468-3.486 8.468zm-3.528-12.182c.631-3.491 1.857-5.571 3.3-5.571 1.672 0 2.675 1.857 3.306 5.571v.223h-6.2zm20.427-3.491v-.223a9.9 9.9 0 0 1 2.674 6.834c0 7.02-7.837 13-17.939 13.594 2.675-2.452 3.937-6.8 3.937-13.185l.186-.223c6.616-.817 11.143-3.714 11.143-6.797zm-17.299-5.794c7.428 0 13.593 2.08 13.593 4.754 0 1.857-3.083 3.714-8.022 4.346-.632-4.94-2.9-8.877-5.163-8.877-2.488 0-4.568 3.491-5.385 8.877h-.409c-4.939-1.04-7.613-2.489-7.613-4.346-.001-2.674 5.753-4.754 12.999-4.754zm-16.928 5.645c.014-.088.059-.13.215-.259-.077.084-.142.173-.215.259a.966.966 0 0 0-.008.149c0 3.083 4.531 5.794 11.365 6.8l.185.223v.408c0 6.2 1.449 10.511 3.937 12.777-10.547-.818-17.976-6.574-17.976-13.817a10.164 10.164 0 0 1 2.494-6.54z" class="cls-1"/>
        <path id="Path_247" d="M928.217 537.722h4.754v-16.936h6.611v-3.9h-17.753v3.9h6.388z" class="cls-1"/>
        <path id="Path_248" d="M951.541 538.539a11.143 11.143 0 0 0 .186-22.284 11.146 11.146 0 0 0-11.142 11.328 11.024 11.024 0 0 0 10.956 10.956zm.186-18.161c3.528 0 5.98 2.9 5.98 7.019s-2.452 7.02-5.98 7.02c-3.714 0-6.165-2.674-6.165-7.02.186-4.122 2.451-7.019 6.165-7.019z" class="cls-1"/>
        <path id="Path_249" d="M971.337 537.722h4.754v-7.651l8.431-13.185h-5.571l-5.351 8.654-5.162-8.654h-5.348l8.245 13.185z" class="cls-1"/>
        <path id="Path_250" d="M995.478 538.539a11.144 11.144 0 1 0-10.956-10.956 10.882 10.882 0 0 0 10.956 10.956zm.186-18.161c3.528 0 5.794 2.9 5.794 7.019s-2.266 7.02-5.98 7.02-5.979-2.674-5.979-7.02c.001-4.122 2.451-7.019 6.165-7.019z" class="cls-1"/>
        <path id="Path_251" d="M1014.049 537.722h4.754v-16.936h6.574v-3.9h-17.717v3.9h6.388z" class="cls-1"/>
        <path id="Path_252" d="M1029.09 537.722l1.672-4.568h8.876l1.857 4.568h5.126l-8.431-20.835h-5.79l-8.468 20.835zm6.2-16.3l2.9 8.022h-5.98z" class="cls-1"/>
        <path id="Path_253" d="M990.539 553.8h-2.9v3.083h2.9a1.424 1.424 0 0 0 1.634-1.635c0-1.036-.631-1.448-1.634-1.448z" class="cls-1"/>
        <path id="Path_254" d="M944.3 558.744h2.9l-1.448-4.122z" class="cls-1"/>
        <path id="Path_255" d="M871.5 545.967v22.47h175.748v-22.47zm14.819 7.837h-5.534v2.674h4.717v2.08h-4.717v4.531H878.3v-11.365h8.022zm3.714 9.285h-2.674v-11.365h2.674zm11.365 0h-2.488l-4.717-7.651v7.651h-2.3v-11.365h2.488l4.754 7.651v-7.651h2.265zm9.285 0l-.817-2.488h-4.123l-1.04 2.488h-2.488l4.346-11.365h2.451l4.345 11.365zm13 0H921.2l-4.754-7.651v7.651h-2.266v-11.365h2.489l4.754 7.651v-7.651h2.265zm6.8-1.857a2.676 2.676 0 0 0 2.674-2.488h2.265a4.692 4.692 0 0 1-4.939 4.754c-3.491 0-5.571-2.675-5.571-5.98s2.08-5.979 5.571-5.979a4.709 4.709 0 0 1 4.939 4.122h-2.451a2.511 2.511 0 0 0-2.488-2.08c-2.266 0-3.083 1.857-3.083 3.937 0 1.857.817 3.714 3.083 3.714zm8.654 1.857h-2.452v-11.365h2.452zm9.507 0l-.817-2.488h-4.345l-.817 2.488h-2.489l4.346-11.365h2.488l4.308 11.365zm11.328 0h-8.022v-11.365h2.488v9.285h5.534zm9.285.409c-2.451 0-4.717-1.226-4.717-4.123h2.452c0 1.448 1.04 2.043 2.488 2.043.817 0 2.08-.186 2.08-1.412 0-1.262-1.671-1.448-3.306-1.857-1.671-.445-3.305-1.04-3.305-3.119 0-2.452 2.043-3.491 4.123-3.491 2.488 0 4.531 1.039 4.531 3.713h-2.266a1.957 1.957 0 0 0-2.265-1.857c-.818 0-1.857.409-1.857 1.449 0 .817.631.817 3.491 1.634.854.223 3.3.631 3.3 3.306.005 2.079-1.629 3.716-4.749 3.716zm14.671-.409h-8.654v-11.365h8.431v2.08h-5.98v2.488h5.575v2.043h-5.571v2.674h6.2zm8.468 0a9.436 9.436 0 0 1-.223-2.674c-.223-1.263-.817-1.671-2.08-1.671h-2.451v4.345h-2.489v-11.365h6.2a3.116 3.116 0 0 1 3.3 3.12 3.1 3.1 0 0 0-.222 5.571 3.954 3.954 0 0 0 .631 2.674zm9.062 0h-2.9l-3.714-11.365h2.674l2.488 8.06 2.675-8.06h2.488zm7.428 0h-2.486v-11.365h2.488zm7.02.409c-3.529 0-5.572-2.675-5.572-5.98s2.043-5.979 5.572-5.979a4.445 4.445 0 0 1 4.754 4.122h-2.3a2.445 2.445 0 0 0-2.451-2.08c-2.266 0-3.12 1.857-3.12 3.937 0 1.857.854 3.714 3.12 3.714a2.48 2.48 0 0 0 2.451-2.488h2.488a4.821 4.821 0 0 1-4.942 4.756zm14.447-9.694h-5.979v2.488h5.348v2.043h-5.348v2.674h5.979v2.08h-8.468v-11.365h8.468zm5.757 9.694c-2.488 0-4.94-1.226-4.94-4.123h2.452c0 1.448 1.262 2.043 2.488 2.043.817 0 2.265-.186 2.265-1.412 0-1.262-1.634-1.448-3.305-1.857-1.857-.445-3.491-1.04-3.491-3.119 0-2.452 2.265-3.491 4.345-3.491 2.266 0 4.531 1.039 4.531 3.713h-2.488c0-1.448-1.04-1.857-2.266-1.857a1.451 1.451 0 0 0-1.634 1.449c0 .817.409.817 3.268 1.634.855.223 3.529.631 3.529 3.306 0 2.079-1.671 3.716-4.754 3.716z" class="cls-1"/>
        <path id="Path_256" d="M906.341 558.744h2.9l-1.449-4.122z" class="cls-1"/>
    </g>
</svg>
