<svg xmlns="http://www.w3.org/2000/svg" id="phone_on" width="16.62" height="16.619" viewBox="0 0 16.62 16.619">
    <defs>
        <style>
            .cls-1{fill:#fff}
        </style>
    </defs>
    <path id="Path_2" d="M16.55 12.571a2.006 2.006 0 0 1 .13 2.2 9.67 9.67 0 0 1-1.291 1.33c-1.09.989-3.268.312-4.257 0a22.741 22.741 0 0 1-6.164-4.4 17.545 17.545 0 0 1-4.352-7 3.335 3.335 0 0 1 0-2.761C.813 1.4 1.179.931 2.257.312S3.725.163 4 .312a6.125 6.125 0 0 1 1.9 2.2c.415 1 .218 1.638-.1 1.941a9.124 9.124 0 0 1-.813.767c-.265.185-.322.453-.281.969S6.608 8.727 6.977 9.1s2.8 2.893 3.647 3.086 1.153-.177 1.244-.277a7.189 7.189 0 0 1 .8-.866 1.933 1.933 0 0 1 1.641-.052 9.121 9.121 0 0 1 2.241 1.579zm-4.622-5.654a.444.444 0 0 1-.435-.357 2.857 2.857 0 0 0-1.25-1.887.445.445 0 0 1 .427-.779 3.742 3.742 0 0 1 1.693 2.493.445.445 0 0 1-.435.531zm2.077.226a.445.445 0 0 1-.442-.4 4.582 4.582 0 0 0-1.426-2.978 4.188 4.188 0 0 0-1.232-.816.444.444 0 0 1 .306-.834 4.94 4.94 0 0 1 1.5.971 5.5 5.5 0 0 1 1.737 3.568.445.445 0 0 1-.448.489z" class="cls-1" transform="translate(-.328)"/>
    <path id="Path_3" d="M688.036 6.975a.465.465 0 0 1-.483-.441 5.506 5.506 0 0 0-2.1-4.415 7.089 7.089 0 0 0-2.142-1.2.438.438 0 0 1-.311-.566.5.5 0 0 1 .609-.28 7.981 7.981 0 0 1 2.451 1.363 6.746 6.746 0 0 1 1.683 1.99 6.437 6.437 0 0 1 .773 3.106.465.465 0 0 1-.481.445z" class="cls-1" transform="translate(-671.898 -.05)"/>
</svg>
