<svg xmlns="http://www.w3.org/2000/svg" width="48.559" height="48.559" viewBox="0 0 48.559 48.559">
    <g fill="#dc0016">
        <path d="M241 62.208a1.883 1.883 0 0 1-.654 2.517 1.742 1.742 0 0 1-2.428-.67l-4.11-7.39a1.881 1.881 0 0 1 .653-2.517 1.742 1.742 0 0 1 2.428.67l4.111 7.39z" opacity="0.453" transform="translate(-936 -641) translate(713.51 589.657)"/>
        <path d="M636.2 744.875a1.883 1.883 0 0 1-.654 2.517 1.742 1.742 0 0 1-2.428-.67l-4.111-7.39a1.883 1.883 0 0 1 .654-2.517 1.742 1.742 0 0 1 2.428.67z" opacity="0.788" transform="translate(-936 -641) translate(337.042 -60.637)"/>
        <path d="M739.331 240.977a1.883 1.883 0 0 1-2.517-.654 1.742 1.742 0 0 1 .67-2.428l7.39-4.111a1.883 1.883 0 0 1 2.517.654 1.742 1.742 0 0 1-.67 2.428z" opacity="0.65" transform="translate(-936 -641) translate(234.363 418.528)"/>
        <path d="M56.664 636.2a1.881 1.881 0 0 1-2.517-.653 1.742 1.742 0 0 1 .67-2.428l7.39-4.111a1.883 1.883 0 0 1 2.517.654 1.741 1.741 0 0 1-.67 2.428l-7.39 4.11z" opacity="0.952" transform="translate(-936 -641) translate(884.657 42.042)"/>
        <path d="M632.1 64.054a1.742 1.742 0 0 1-2.428.67 1.88 1.88 0 0 1-.653-2.517l4.11-7.39a1.742 1.742 0 0 1 2.428-.67 1.88 1.88 0 0 1 .653 2.517z" opacity="0.598" transform="translate(-936 -641) translate(337.041 589.657)"/>
        <path d="M236.862 746.721a1.743 1.743 0 0 1-2.428.671 1.883 1.883 0 0 1-.654-2.517l4.111-7.39a1.742 1.742 0 0 1 2.428-.67 1.882 1.882 0 0 1 .654 2.517z" opacity="0.901" transform="translate(-936 -641) translate(713.532 -60.637)"/>
        <path d="M737.485 632.1a1.742 1.742 0 0 1-.67-2.428 1.88 1.88 0 0 1 2.517-.653l7.39 4.11a1.742 1.742 0 0 1 .67 2.428 1.881 1.881 0 0 1-2.517.653z" opacity="0.748" transform="translate(-936 -641) translate(234.363 42.041)"/>
        <path d="M54.818 236.862a1.742 1.742 0 0 1-.67-2.428 1.882 1.882 0 0 1 2.517-.654l7.39 4.111a1.742 1.742 0 0 1 .67 2.428 1.882 1.882 0 0 1-2.517.654z" opacity="0.348" transform="translate(-936 -641) translate(884.657 418.532)"/>
        <path d="M774.289 471.347a2.16 2.16 0 0 1 0-4.26h8.332a2.16 2.16 0 0 1 0 4.26z" opacity="0.7" transform="translate(-936 -641) translate(200.141 196.062)"/>
        <path d="M1.8 471.347a2.16 2.16 0 0 1 0-4.26h8.332a2.16 2.16 0 0 1 0 4.26z" transform="translate(-936 -641) translate(936 196.062)"/>
        <path d="M467.088 774.289a2.16 2.16 0 0 1 4.26 0v8.332a2.16 2.16 0 0 1-4.26 0z" opacity="0.848" transform="translate(-936 -641) translate(491.062 -94.859)"/>
        <path d="M467.088 1.8a2.16 2.16 0 0 1 4.26 0v8.332a2.16 2.16 0 0 1-4.26 0z" opacity="0.552" transform="translate(-936 -641) translate(491.062 641)"/>
    </g>
</svg>
