<svg xmlns="http://www.w3.org/2000/svg" width="23.384" height="23.384" viewBox="0 0 23.384 23.384">
    <defs>
        <style>
            .cls-1{fill:#31383e}
        </style>
    </defs>
    <g id="phone_on" transform="translate(-.328)">
        <path id="Path_2" d="M23.152 17.687a2.823 2.823 0 0 1 .183 3.1 13.605 13.605 0 0 1-1.817 1.871c-1.533 1.391-4.6.438-5.989 0s-5.174-2.862-8.672-6.186A24.687 24.687 0 0 1 .733 6.624a4.692 4.692 0 0 1 0-3.885c.278-.775.792-1.429 2.309-2.3s2.065-.209 2.452 0a8.618 8.618 0 0 1 2.673 3.092c.585 1.4.307 2.3-.146 2.732a12.838 12.838 0 0 1-1.144 1.078c-.373.26-.453.637-.4 1.364s2.683 3.575 3.2 4.1 3.943 4.07 5.131 4.342 1.622-.248 1.751-.39a10.115 10.115 0 0 1 1.128-1.219A2.72 2.72 0 0 1 20 15.464a12.833 12.833 0 0 1 3.15 2.221zm-6.5-7.955a.625.625 0 0 1-.612-.5 4.02 4.02 0 0 0-1.758-2.656.626.626 0 0 1 .6-1.1 5.265 5.265 0 0 1 2.382 3.508.626.626 0 0 1-.612.747zm2.923.319a.626.626 0 0 1-.623-.563A6.447 6.447 0 0 0 16.944 5.3a5.893 5.893 0 0 0-1.734-1.151.625.625 0 1 1 .431-1.174 6.951 6.951 0 0 1 2.11 1.366A7.733 7.733 0 0 1 20.2 9.362a.626.626 0 0 1-.624.688z" class="cls-1"/>
        <path id="Path_3" d="M690.094 9.793a.654.654 0 0 1-.68-.621 7.747 7.747 0 0 0-2.96-6.211 9.974 9.974 0 0 0-3.014-1.7.616.616 0 0 1-.43-.789.7.7 0 0 1 .856-.395A11.229 11.229 0 0 1 687.318 2a9.492 9.492 0 0 1 2.368 2.8 9.056 9.056 0 0 1 1.087 4.37.654.654 0 0 1-.677.626z" class="cls-1" transform="translate(-667.061 -.049)"/>
    </g>
</svg>
